<?xml version="1.0" encoding="UTF-8" standalone="no"?><svg xmlns="http://www.w3.org/2000/svg" xmlns:xlink="http://www.w3.org/1999/xlink" contentScriptType="application/ecmascript" contentStyleType="text/css" height="606px" preserveAspectRatio="none" style="width:1363px;height:606px;background:#FFFFFF;" version="1.1" viewBox="0 0 1363 606" width="1363px" zoomAndPan="magnify"><defs><filter height="300%" id="f1rgwxcmyvooes" width="300%" x="-1" y="-1"><feGaussianBlur result="blurOut" stdDeviation="2.0"/><feColorMatrix in="blurOut" result="blurOut2" type="matrix" values="0 0 0 0 0 0 0 0 0 0 0 0 0 0 0 0 0 0 .4 0"/><feOffset dx="4.0" dy="4.0" in="blurOut2" result="blurOut3"/><feBlend in="SourceGraphic" in2="blurOut3" mode="normal"/></filter></defs><g><text fill="#000000" font-family="sans-serif" font-size="18" lengthAdjust="spacing" textLength="171" x="589.5" y="16.708">UML - Tiny Fighter</text><!--MD5=[064f7a74fee85463ec1a30143664ee17]
class GameObject--><rect codeLine="13" fill="#FEFECE" filter="url(#f1rgwxcmyvooes)" height="99.2188" id="GameObject" style="stroke:#A80036;stroke-width:1.5;" width="261" x="903.5" y="27.9531"/><ellipse cx="992.25" cy="43.9531" fill="#ADD1B2" rx="11" ry="11" style="stroke:#A80036;stroke-width:1.0;"/><path d="M994.5938,39.625 C993.6563,39.1875 993.0625,39.0469 992.1875,39.0469 C989.5625,39.0469 987.5625,41.125 987.5625,43.8438 L987.5625,44.9688 C987.5625,47.5469 989.6719,49.4375 992.5625,49.4375 C993.7813,49.4375 994.9375,49.1406 995.6875,48.5938 C996.2656,48.1875 996.5938,47.7344 996.5938,47.3438 C996.5938,46.8906 996.2031,46.5 995.7344,46.5 C995.5156,46.5 995.3125,46.5781 995.125,46.7656 C994.6719,47.25 994.6719,47.25 994.4844,47.3438 C994.0625,47.6094 993.375,47.7344 992.6094,47.7344 C990.5625,47.7344 989.2656,46.6406 989.2656,44.9375 L989.2656,43.8438 C989.2656,42.0625 990.5156,40.75 992.25,40.75 C992.8281,40.75 993.4375,40.9063 993.9063,41.1563 C994.3906,41.4375 994.5625,41.6563 994.6563,42.0625 C994.7188,42.4688 994.75,42.5938 994.8906,42.7188 C995.0313,42.8594 995.2656,42.9688 995.4844,42.9688 C995.75,42.9688 996.0156,42.8281 996.1875,42.6094 C996.2969,42.4531 996.3281,42.2656 996.3281,41.8438 L996.3281,40.4219 C996.3281,39.9844 996.3125,39.8594 996.2188,39.7031 C996.0625,39.4375 995.7813,39.2969 995.4844,39.2969 C995.1875,39.2969 994.9844,39.3906 994.7656,39.7031 L994.5938,39.625 Z " fill="#000000"/><text fill="#000000" font-family="sans-serif" font-size="12" lengthAdjust="spacing" textLength="75" x="1012.75" y="48.1074">GameObject</text><line style="stroke:#A80036;stroke-width:1.5;" x1="904.5" x2="1163.5" y1="59.9531" y2="59.9531"/><ellipse cx="914.5" cy="70.9531" rx="3" ry="3" style="stroke:#038048;stroke-width:1.0;fill:none;"/><text fill="#000000" font-family="sans-serif" font-size="11" lengthAdjust="spacing" textLength="94" x="923.5" y="74.1636">sf::Sprite m_icon</text><line style="stroke:#A80036;stroke-width:1.5;" x1="904.5" x2="1163.5" y1="80.7578" y2="80.7578"/><ellipse cx="914.5" cy="91.7578" fill="#84BE84" rx="3" ry="3" style="stroke:#038048;stroke-width:1.0;"/><text fill="#000000" font-family="sans-serif" font-size="11" lengthAdjust="spacing" textLength="235" x="923.5" y="94.9683">GameObject(const sf::Vector2f&amp; location)</text><ellipse cx="914.5" cy="104.5625" fill="#84BE84" rx="3" ry="3" style="stroke:#038048;stroke-width:1.0;"/><text fill="#000000" font-family="sans-serif" font-size="11" lengthAdjust="spacing" textLength="89" x="923.5" y="107.7729">~GameObject()</text><ellipse cx="914.5" cy="117.3672" fill="#84BE84" rx="3" ry="3" style="stroke:#038048;stroke-width:1.0;"/><text fill="#000000" font-family="sans-serif" font-size="11" lengthAdjust="spacing" textLength="197" x="923.5" y="120.5776">void draw(sf::RenderWindow&amp;) = 0</text><!--MD5=[45c81575b743c0960d996f87188658c4]
class MovingObject--><rect codeLine="21" fill="#FEFECE" filter="url(#f1rgwxcmyvooes)" height="73.6094" id="MovingObject" style="stroke:#A80036;stroke-width:1.5;" width="266" x="901" y="186.9531"/><ellipse cx="988.25" cy="202.9531" fill="#ADD1B2" rx="11" ry="11" style="stroke:#A80036;stroke-width:1.0;"/><path d="M990.5938,198.625 C989.6563,198.1875 989.0625,198.0469 988.1875,198.0469 C985.5625,198.0469 983.5625,200.125 983.5625,202.8438 L983.5625,203.9688 C983.5625,206.5469 985.6719,208.4375 988.5625,208.4375 C989.7813,208.4375 990.9375,208.1406 991.6875,207.5938 C992.2656,207.1875 992.5938,206.7344 992.5938,206.3438 C992.5938,205.8906 992.2031,205.5 991.7344,205.5 C991.5156,205.5 991.3125,205.5781 991.125,205.7656 C990.6719,206.25 990.6719,206.25 990.4844,206.3438 C990.0625,206.6094 989.375,206.7344 988.6094,206.7344 C986.5625,206.7344 985.2656,205.6406 985.2656,203.9375 L985.2656,202.8438 C985.2656,201.0625 986.5156,199.75 988.25,199.75 C988.8281,199.75 989.4375,199.9063 989.9063,200.1563 C990.3906,200.4375 990.5625,200.6563 990.6563,201.0625 C990.7188,201.4688 990.75,201.5938 990.8906,201.7188 C991.0313,201.8594 991.2656,201.9688 991.4844,201.9688 C991.75,201.9688 992.0156,201.8281 992.1875,201.6094 C992.2969,201.4531 992.3281,201.2656 992.3281,200.8438 L992.3281,199.4219 C992.3281,198.9844 992.3125,198.8594 992.2188,198.7031 C992.0625,198.4375 991.7813,198.2969 991.4844,198.2969 C991.1875,198.2969 990.9844,198.3906 990.7656,198.7031 L990.5938,198.625 Z " fill="#000000"/><text fill="#000000" font-family="sans-serif" font-size="12" lengthAdjust="spacing" textLength="83" x="1008.75" y="207.1074">MovingObject</text><line style="stroke:#A80036;stroke-width:1.5;" x1="902" x2="1166" y1="218.9531" y2="218.9531"/><line style="stroke:#A80036;stroke-width:1.5;" x1="902" x2="1166" y1="226.9531" y2="226.9531"/><ellipse cx="912" cy="237.9531" fill="#84BE84" rx="3" ry="3" style="stroke:#038048;stroke-width:1.0;"/><text fill="#000000" font-family="sans-serif" font-size="11" lengthAdjust="spacing" textLength="240" x="921" y="241.1636">MovingObject(const sf::Vector2f&amp; location)</text><ellipse cx="912" cy="250.7578" fill="#84BE84" rx="3" ry="3" style="stroke:#038048;stroke-width:1.0;"/><text fill="#000000" font-family="sans-serif" font-size="11" lengthAdjust="spacing" textLength="65" x="921" y="253.9683">move() = 0</text><!--MD5=[797f0650ae644eaecc2609b44e9e4c17]
class characters--><rect codeLine="26" fill="#FEFECE" filter="url(#f1rgwxcmyvooes)" height="124.8281" id="characters" style="stroke:#A80036;stroke-width:1.5;" width="299" x="746.5" y="320.9531"/><ellipse cx="859.75" cy="336.9531" fill="#ADD1B2" rx="11" ry="11" style="stroke:#A80036;stroke-width:1.0;"/><path d="M862.0938,332.625 C861.1563,332.1875 860.5625,332.0469 859.6875,332.0469 C857.0625,332.0469 855.0625,334.125 855.0625,336.8438 L855.0625,337.9688 C855.0625,340.5469 857.1719,342.4375 860.0625,342.4375 C861.2813,342.4375 862.4375,342.1406 863.1875,341.5938 C863.7656,341.1875 864.0938,340.7344 864.0938,340.3438 C864.0938,339.8906 863.7031,339.5 863.2344,339.5 C863.0156,339.5 862.8125,339.5781 862.625,339.7656 C862.1719,340.25 862.1719,340.25 861.9844,340.3438 C861.5625,340.6094 860.875,340.7344 860.1094,340.7344 C858.0625,340.7344 856.7656,339.6406 856.7656,337.9375 L856.7656,336.8438 C856.7656,335.0625 858.0156,333.75 859.75,333.75 C860.3281,333.75 860.9375,333.9063 861.4063,334.1563 C861.8906,334.4375 862.0625,334.6563 862.1563,335.0625 C862.2188,335.4688 862.25,335.5938 862.3906,335.7188 C862.5313,335.8594 862.7656,335.9688 862.9844,335.9688 C863.25,335.9688 863.5156,335.8281 863.6875,335.6094 C863.7969,335.4531 863.8281,335.2656 863.8281,334.8438 L863.8281,333.4219 C863.8281,332.9844 863.8125,332.8594 863.7188,332.7031 C863.5625,332.4375 863.2813,332.2969 862.9844,332.2969 C862.6875,332.2969 862.4844,332.3906 862.2656,332.7031 L862.0938,332.625 Z " fill="#000000"/><text fill="#000000" font-family="sans-serif" font-size="12" lengthAdjust="spacing" textLength="64" x="880.25" y="341.1074">characters</text><line style="stroke:#A80036;stroke-width:1.5;" x1="747.5" x2="1044.5" y1="352.9531" y2="352.9531"/><ellipse cx="757.5" cy="363.9531" rx="3" ry="3" style="stroke:#038048;stroke-width:1.0;fill:none;"/><text fill="#000000" font-family="sans-serif" font-size="11" lengthAdjust="spacing" textLength="273" x="766.5" y="367.1636">std::pair&lt;sf::Rectangle, sf::Rectangle&gt; m_Health</text><ellipse cx="757.5" cy="376.7578" rx="3" ry="3" style="stroke:#038048;stroke-width:1.0;fill:none;"/><text fill="#000000" font-family="sans-serif" font-size="11" lengthAdjust="spacing" textLength="266" x="766.5" y="379.9683">std::pair&lt;sf::Rectangle, sf::Rectangle&gt; m_Mana</text><line style="stroke:#A80036;stroke-width:1.5;" x1="747.5" x2="1044.5" y1="386.5625" y2="386.5625"/><ellipse cx="757.5" cy="397.5625" fill="#84BE84" rx="3" ry="3" style="stroke:#038048;stroke-width:1.0;"/><text fill="#000000" font-family="sans-serif" font-size="11" lengthAdjust="spacing" textLength="97" x="766.5" y="400.7729">InitializeAttacks()</text><ellipse cx="757.5" cy="410.3672" fill="#84BE84" rx="3" ry="3" style="stroke:#038048;stroke-width:1.0;"/><text fill="#000000" font-family="sans-serif" font-size="11" lengthAdjust="spacing" textLength="88" x="766.5" y="413.5776">attack(Key) = 0</text><ellipse cx="757.5" cy="423.1719" fill="#84BE84" rx="3" ry="3" style="stroke:#038048;stroke-width:1.0;"/><text fill="#000000" font-family="sans-serif" font-size="11" lengthAdjust="spacing" textLength="162" x="766.5" y="426.3823">receive(enum Damage) = 0</text><ellipse cx="757.5" cy="435.9766" fill="#84BE84" rx="3" ry="3" style="stroke:#038048;stroke-width:1.0;"/><text fill="#000000" font-family="sans-serif" font-size="11" lengthAdjust="spacing" textLength="131" x="766.5" y="439.187">addMana(float amount)</text><!--MD5=[cd68047a12899acf3cdaa6d1b221384d]
class nonCharacters--><rect codeLine="36" fill="#FEFECE" filter="url(#f1rgwxcmyvooes)" height="86.4141" id="nonCharacters" style="stroke:#A80036;stroke-width:1.5;" width="182" x="1081" y="340.4531"/><ellipse cx="1124.35" cy="356.4531" fill="#ADD1B2" rx="11" ry="11" style="stroke:#A80036;stroke-width:1.0;"/><path d="M1126.6938,352.125 C1125.7563,351.6875 1125.1625,351.5469 1124.2875,351.5469 C1121.6625,351.5469 1119.6625,353.625 1119.6625,356.3438 L1119.6625,357.4688 C1119.6625,360.0469 1121.7719,361.9375 1124.6625,361.9375 C1125.8813,361.9375 1127.0375,361.6406 1127.7875,361.0938 C1128.3656,360.6875 1128.6938,360.2344 1128.6938,359.8438 C1128.6938,359.3906 1128.3031,359 1127.8344,359 C1127.6156,359 1127.4125,359.0781 1127.225,359.2656 C1126.7719,359.75 1126.7719,359.75 1126.5844,359.8438 C1126.1625,360.1094 1125.475,360.2344 1124.7094,360.2344 C1122.6625,360.2344 1121.3656,359.1406 1121.3656,357.4375 L1121.3656,356.3438 C1121.3656,354.5625 1122.6156,353.25 1124.35,353.25 C1124.9281,353.25 1125.5375,353.4063 1126.0063,353.6563 C1126.4906,353.9375 1126.6625,354.1563 1126.7563,354.5625 C1126.8188,354.9688 1126.85,355.0938 1126.9906,355.2188 C1127.1313,355.3594 1127.3656,355.4688 1127.5844,355.4688 C1127.85,355.4688 1128.1156,355.3281 1128.2875,355.1094 C1128.3969,354.9531 1128.4281,354.7656 1128.4281,354.3438 L1128.4281,352.9219 C1128.4281,352.4844 1128.4125,352.3594 1128.3188,352.2031 C1128.1625,351.9375 1127.8813,351.7969 1127.5844,351.7969 C1127.2875,351.7969 1127.0844,351.8906 1126.8656,352.2031 L1126.6938,352.125 Z " fill="#000000"/><text fill="#000000" font-family="sans-serif" font-size="12" lengthAdjust="spacing" textLength="87" x="1144.65" y="360.6074">nonCharacters</text><line style="stroke:#A80036;stroke-width:1.5;" x1="1082" x2="1262" y1="372.4531" y2="372.4531"/><ellipse cx="1092" cy="383.4531" rx="3" ry="3" style="stroke:#038048;stroke-width:1.0;fill:none;"/><text fill="#000000" font-family="sans-serif" font-size="11" lengthAdjust="spacing" textLength="156" x="1101" y="386.6636">enum::Damage m_damage</text><ellipse cx="1092" cy="396.2578" rx="3" ry="3" style="stroke:#038048;stroke-width:1.0;fill:none;"/><text fill="#000000" font-family="sans-serif" font-size="11" lengthAdjust="spacing" textLength="82" x="1101" y="399.4683">float m_speed</text><ellipse cx="1092" cy="409.0625" rx="3" ry="3" style="stroke:#038048;stroke-width:1.0;fill:none;"/><text fill="#000000" font-family="sans-serif" font-size="11" lengthAdjust="spacing" textLength="125" x="1101" y="412.2729">enum::Direction m_dir</text><line style="stroke:#A80036;stroke-width:1.5;" x1="1082" x2="1262" y1="418.8672" y2="418.8672"/><!--MD5=[2cb47ba637a0d19583e6199456f6ad0b]
class Player--><rect codeLine="42" fill="#FEFECE" filter="url(#f1rgwxcmyvooes)" height="86.4141" id="Player" style="stroke:#A80036;stroke-width:1.5;" width="224" x="584" y="505.9531"/><ellipse cx="673.75" cy="521.9531" fill="#ADD1B2" rx="11" ry="11" style="stroke:#A80036;stroke-width:1.0;"/><path d="M676.0938,517.625 C675.1563,517.1875 674.5625,517.0469 673.6875,517.0469 C671.0625,517.0469 669.0625,519.125 669.0625,521.8438 L669.0625,522.9688 C669.0625,525.5469 671.1719,527.4375 674.0625,527.4375 C675.2813,527.4375 676.4375,527.1406 677.1875,526.5938 C677.7656,526.1875 678.0938,525.7344 678.0938,525.3438 C678.0938,524.8906 677.7031,524.5 677.2344,524.5 C677.0156,524.5 676.8125,524.5781 676.625,524.7656 C676.1719,525.25 676.1719,525.25 675.9844,525.3438 C675.5625,525.6094 674.875,525.7344 674.1094,525.7344 C672.0625,525.7344 670.7656,524.6406 670.7656,522.9375 L670.7656,521.8438 C670.7656,520.0625 672.0156,518.75 673.75,518.75 C674.3281,518.75 674.9375,518.9063 675.4063,519.1563 C675.8906,519.4375 676.0625,519.6563 676.1563,520.0625 C676.2188,520.4688 676.25,520.5938 676.3906,520.7188 C676.5313,520.8594 676.7656,520.9688 676.9844,520.9688 C677.25,520.9688 677.5156,520.8281 677.6875,520.6094 C677.7969,520.4531 677.8281,520.2656 677.8281,519.8438 L677.8281,518.4219 C677.8281,517.9844 677.8125,517.8594 677.7188,517.7031 C677.5625,517.4375 677.2813,517.2969 676.9844,517.2969 C676.6875,517.2969 676.4844,517.3906 676.2656,517.7031 L676.0938,517.625 Z " fill="#000000"/><text fill="#000000" font-family="sans-serif" font-size="12" lengthAdjust="spacing" textLength="36" x="694.25" y="526.1074">Player</text><line style="stroke:#A80036;stroke-width:1.5;" x1="585" x2="807" y1="537.9531" y2="537.9531"/><ellipse cx="595" cy="548.9531" rx="3" ry="3" style="stroke:#038048;stroke-width:1.0;fill:none;"/><text fill="#000000" font-family="sans-serif" font-size="11" lengthAdjust="spacing" textLength="44" x="604" y="552.1636">m_lives</text><line style="stroke:#A80036;stroke-width:1.5;" x1="585" x2="807" y1="558.7578" y2="558.7578"/><ellipse cx="595" cy="569.7578" fill="#84BE84" rx="3" ry="3" style="stroke:#038048;stroke-width:1.0;"/><text fill="#000000" font-family="sans-serif" font-size="11" lengthAdjust="spacing" textLength="198" x="604" y="572.9683">Player(const sf::Vector2f&amp; location)</text><ellipse cx="595" cy="582.5625" fill="#84BE84" rx="3" ry="3" style="stroke:#038048;stroke-width:1.0;"/><text fill="#000000" font-family="sans-serif" font-size="11" lengthAdjust="spacing" textLength="86" x="604" y="585.7729">specialAttack();</text><!--MD5=[80c532e980642ebbe770e7ed91e479d0]
class Enemy--><rect codeLine="48" fill="#FEFECE" filter="url(#f1rgwxcmyvooes)" height="60.8047" id="Enemy" style="stroke:#A80036;stroke-width:1.5;" width="506" x="843" y="518.4531"/><ellipse cx="1071.75" cy="534.4531" fill="#ADD1B2" rx="11" ry="11" style="stroke:#A80036;stroke-width:1.0;"/><path d="M1074.0938,530.125 C1073.1563,529.6875 1072.5625,529.5469 1071.6875,529.5469 C1069.0625,529.5469 1067.0625,531.625 1067.0625,534.3438 L1067.0625,535.4688 C1067.0625,538.0469 1069.1719,539.9375 1072.0625,539.9375 C1073.2813,539.9375 1074.4375,539.6406 1075.1875,539.0938 C1075.7656,538.6875 1076.0938,538.2344 1076.0938,537.8438 C1076.0938,537.3906 1075.7031,537 1075.2344,537 C1075.0156,537 1074.8125,537.0781 1074.625,537.2656 C1074.1719,537.75 1074.1719,537.75 1073.9844,537.8438 C1073.5625,538.1094 1072.875,538.2344 1072.1094,538.2344 C1070.0625,538.2344 1068.7656,537.1406 1068.7656,535.4375 L1068.7656,534.3438 C1068.7656,532.5625 1070.0156,531.25 1071.75,531.25 C1072.3281,531.25 1072.9375,531.4063 1073.4063,531.6563 C1073.8906,531.9375 1074.0625,532.1563 1074.1563,532.5625 C1074.2188,532.9688 1074.25,533.0938 1074.3906,533.2188 C1074.5313,533.3594 1074.7656,533.4688 1074.9844,533.4688 C1075.25,533.4688 1075.5156,533.3281 1075.6875,533.1094 C1075.7969,532.9531 1075.8281,532.7656 1075.8281,532.3438 L1075.8281,530.9219 C1075.8281,530.4844 1075.8125,530.3594 1075.7188,530.2031 C1075.5625,529.9375 1075.2813,529.7969 1074.9844,529.7969 C1074.6875,529.7969 1074.4844,529.8906 1074.2656,530.2031 L1074.0938,530.125 Z " fill="#000000"/><text fill="#000000" font-family="sans-serif" font-size="12" lengthAdjust="spacing" textLength="40" x="1092.25" y="538.6074">Enemy</text><line style="stroke:#A80036;stroke-width:1.5;" x1="844" x2="1348" y1="550.4531" y2="550.4531"/><line style="stroke:#A80036;stroke-width:1.5;" x1="844" x2="1348" y1="558.4531" y2="558.4531"/><ellipse cx="854" cy="569.4531" fill="#84BE84" rx="3" ry="3" style="stroke:#038048;stroke-width:1.0;"/><text fill="#000000" font-family="sans-serif" font-size="11" lengthAdjust="spacing" textLength="480" x="863" y="572.6636">Enemy(const sf::Vector2f&amp; location, std::vactor&lt;const sf::Vector2f&amp;&gt; playerLocation)</text><!--MD5=[01aeada2388ef746e455587df9a4d391]
class Arena--><rect codeLine="9" fill="#FEFECE" filter="url(#f1rgwxcmyvooes)" height="60.8047" id="Arena" style="stroke:#A80036;stroke-width:1.5;" width="344" x="7" y="46.9531"/><ellipse cx="157.25" cy="62.9531" fill="#ADD1B2" rx="11" ry="11" style="stroke:#A80036;stroke-width:1.0;"/><path d="M159.5938,58.625 C158.6563,58.1875 158.0625,58.0469 157.1875,58.0469 C154.5625,58.0469 152.5625,60.125 152.5625,62.8438 L152.5625,63.9688 C152.5625,66.5469 154.6719,68.4375 157.5625,68.4375 C158.7813,68.4375 159.9375,68.1406 160.6875,67.5938 C161.2656,67.1875 161.5938,66.7344 161.5938,66.3438 C161.5938,65.8906 161.2031,65.5 160.7344,65.5 C160.5156,65.5 160.3125,65.5781 160.125,65.7656 C159.6719,66.25 159.6719,66.25 159.4844,66.3438 C159.0625,66.6094 158.375,66.7344 157.6094,66.7344 C155.5625,66.7344 154.2656,65.6406 154.2656,63.9375 L154.2656,62.8438 C154.2656,61.0625 155.5156,59.75 157.25,59.75 C157.8281,59.75 158.4375,59.9063 158.9063,60.1563 C159.3906,60.4375 159.5625,60.6563 159.6563,61.0625 C159.7188,61.4688 159.75,61.5938 159.8906,61.7188 C160.0313,61.8594 160.2656,61.9688 160.4844,61.9688 C160.75,61.9688 161.0156,61.8281 161.1875,61.6094 C161.2969,61.4531 161.3281,61.2656 161.3281,60.8438 L161.3281,59.4219 C161.3281,58.9844 161.3125,58.8594 161.2188,58.7031 C161.0625,58.4375 160.7813,58.2969 160.4844,58.2969 C160.1875,58.2969 159.9844,58.3906 159.7656,58.7031 L159.5938,58.625 Z " fill="#000000"/><text fill="#000000" font-family="sans-serif" font-size="12" lengthAdjust="spacing" textLength="35" x="177.75" y="67.1074">Arena</text><line style="stroke:#A80036;stroke-width:1.5;" x1="8" x2="350" y1="78.9531" y2="78.9531"/><ellipse cx="18" cy="89.9531" rx="3" ry="3" style="stroke:#038048;stroke-width:1.0;fill:none;"/><text fill="#000000" font-family="sans-serif" font-size="11" lengthAdjust="spacing" textLength="318" x="27" y="93.1636">std::vector&lt;std::unique_ptr&lt;MovingObject&gt;&gt; m_moving</text><line style="stroke:#A80036;stroke-width:1.5;" x1="8" x2="350" y1="99.7578" y2="99.7578"/><!--MD5=[b100d9ecbf61242c2c4086a98816fb00]
class macros--><rect codeLine="52" fill="#FEFECE" filter="url(#f1rgwxcmyvooes)" height="73.6094" id="macros" style="stroke:#A80036;stroke-width:1.5;" width="202" x="386" y="40.4531"/><ellipse cx="460.25" cy="56.4531" fill="#ADD1B2" rx="11" ry="11" style="stroke:#A80036;stroke-width:1.0;"/><path d="M462.5938,52.125 C461.6563,51.6875 461.0625,51.5469 460.1875,51.5469 C457.5625,51.5469 455.5625,53.625 455.5625,56.3438 L455.5625,57.4688 C455.5625,60.0469 457.6719,61.9375 460.5625,61.9375 C461.7813,61.9375 462.9375,61.6406 463.6875,61.0938 C464.2656,60.6875 464.5938,60.2344 464.5938,59.8438 C464.5938,59.3906 464.2031,59 463.7344,59 C463.5156,59 463.3125,59.0781 463.125,59.2656 C462.6719,59.75 462.6719,59.75 462.4844,59.8438 C462.0625,60.1094 461.375,60.2344 460.6094,60.2344 C458.5625,60.2344 457.2656,59.1406 457.2656,57.4375 L457.2656,56.3438 C457.2656,54.5625 458.5156,53.25 460.25,53.25 C460.8281,53.25 461.4375,53.4063 461.9063,53.6563 C462.3906,53.9375 462.5625,54.1563 462.6563,54.5625 C462.7188,54.9688 462.75,55.0938 462.8906,55.2188 C463.0313,55.3594 463.2656,55.4688 463.4844,55.4688 C463.75,55.4688 464.0156,55.3281 464.1875,55.1094 C464.2969,54.9531 464.3281,54.7656 464.3281,54.3438 L464.3281,52.9219 C464.3281,52.4844 464.3125,52.3594 464.2188,52.2031 C464.0625,51.9375 463.7813,51.7969 463.4844,51.7969 C463.1875,51.7969 462.9844,51.8906 462.7656,52.2031 L462.5938,52.125 Z " fill="#000000"/><text fill="#000000" font-family="sans-serif" font-size="12" lengthAdjust="spacing" textLength="45" x="480.75" y="60.6074">macros</text><line style="stroke:#A80036;stroke-width:1.5;" x1="387" x2="587" y1="72.4531" y2="72.4531"/><text fill="#000000" font-family="sans-serif" font-size="11" lengthAdjust="spacing" textLength="131" x="392" y="86.6636">// macros is not a class</text><text fill="#000000" font-family="sans-serif" font-size="11" lengthAdjust="spacing" textLength="190" x="392" y="99.4683">// holds enum classes and consts</text><line style="stroke:#A80036;stroke-width:1.5;" x1="387" x2="587" y1="106.0625" y2="106.0625"/><!--MD5=[9829344aa0074100bb2f30f53bfb297c]
class ResourcesManager--><rect codeLine="57" fill="#FEFECE" filter="url(#f1rgwxcmyvooes)" height="60.8047" id="ResourcesManager" style="stroke:#A80036;stroke-width:1.5;" width="245" x="623.5" y="46.9531"/><ellipse cx="683.75" cy="62.9531" fill="#ADD1B2" rx="11" ry="11" style="stroke:#A80036;stroke-width:1.0;"/><path d="M686.0938,58.625 C685.1563,58.1875 684.5625,58.0469 683.6875,58.0469 C681.0625,58.0469 679.0625,60.125 679.0625,62.8438 L679.0625,63.9688 C679.0625,66.5469 681.1719,68.4375 684.0625,68.4375 C685.2813,68.4375 686.4375,68.1406 687.1875,67.5938 C687.7656,67.1875 688.0938,66.7344 688.0938,66.3438 C688.0938,65.8906 687.7031,65.5 687.2344,65.5 C687.0156,65.5 686.8125,65.5781 686.625,65.7656 C686.1719,66.25 686.1719,66.25 685.9844,66.3438 C685.5625,66.6094 684.875,66.7344 684.1094,66.7344 C682.0625,66.7344 680.7656,65.6406 680.7656,63.9375 L680.7656,62.8438 C680.7656,61.0625 682.0156,59.75 683.75,59.75 C684.3281,59.75 684.9375,59.9063 685.4063,60.1563 C685.8906,60.4375 686.0625,60.6563 686.1563,61.0625 C686.2188,61.4688 686.25,61.5938 686.3906,61.7188 C686.5313,61.8594 686.7656,61.9688 686.9844,61.9688 C687.25,61.9688 687.5156,61.8281 687.6875,61.6094 C687.7969,61.4531 687.8281,61.2656 687.8281,60.8438 L687.8281,59.4219 C687.8281,58.9844 687.8125,58.8594 687.7188,58.7031 C687.5625,58.4375 687.2813,58.2969 686.9844,58.2969 C686.6875,58.2969 686.4844,58.3906 686.2656,58.7031 L686.0938,58.625 Z " fill="#000000"/><text fill="#000000" font-family="sans-serif" font-size="12" lengthAdjust="spacing" textLength="116" x="704.25" y="67.1074">ResourcesManager</text><line style="stroke:#A80036;stroke-width:1.5;" x1="624.5" x2="867.5" y1="78.9531" y2="78.9531"/><text fill="#000000" font-family="sans-serif" font-size="11" lengthAdjust="spacing" textLength="233" x="629.5" y="93.1636">// singleton for textures, fonts and sound</text><line style="stroke:#A80036;stroke-width:1.5;" x1="624.5" x2="867.5" y1="99.7578" y2="99.7578"/><!--MD5=[41178c8a85c8951a5fc67ad610e8f0cf]
class Collision--><rect codeLine="60" fill="#FEFECE" filter="url(#f1rgwxcmyvooes)" height="60.8047" id="Collision" style="stroke:#A80036;stroke-width:1.5;" width="254" x="52" y="193.4531"/><ellipse cx="149.75" cy="209.4531" fill="#ADD1B2" rx="11" ry="11" style="stroke:#A80036;stroke-width:1.0;"/><path d="M152.0938,205.125 C151.1563,204.6875 150.5625,204.5469 149.6875,204.5469 C147.0625,204.5469 145.0625,206.625 145.0625,209.3438 L145.0625,210.4688 C145.0625,213.0469 147.1719,214.9375 150.0625,214.9375 C151.2813,214.9375 152.4375,214.6406 153.1875,214.0938 C153.7656,213.6875 154.0938,213.2344 154.0938,212.8438 C154.0938,212.3906 153.7031,212 153.2344,212 C153.0156,212 152.8125,212.0781 152.625,212.2656 C152.1719,212.75 152.1719,212.75 151.9844,212.8438 C151.5625,213.1094 150.875,213.2344 150.1094,213.2344 C148.0625,213.2344 146.7656,212.1406 146.7656,210.4375 L146.7656,209.3438 C146.7656,207.5625 148.0156,206.25 149.75,206.25 C150.3281,206.25 150.9375,206.4063 151.4063,206.6563 C151.8906,206.9375 152.0625,207.1563 152.1563,207.5625 C152.2188,207.9688 152.25,208.0938 152.3906,208.2188 C152.5313,208.3594 152.7656,208.4688 152.9844,208.4688 C153.25,208.4688 153.5156,208.3281 153.6875,208.1094 C153.7969,207.9531 153.8281,207.7656 153.8281,207.3438 L153.8281,205.9219 C153.8281,205.4844 153.8125,205.3594 153.7188,205.2031 C153.5625,204.9375 153.2813,204.7969 152.9844,204.7969 C152.6875,204.7969 152.4844,204.8906 152.2656,205.2031 L152.0938,205.125 Z " fill="#000000"/><text fill="#000000" font-family="sans-serif" font-size="12" lengthAdjust="spacing" textLength="50" x="170.25" y="213.6074">Collision</text><line style="stroke:#A80036;stroke-width:1.5;" x1="53" x2="305" y1="225.4531" y2="225.4531"/><text fill="#000000" font-family="sans-serif" font-size="11" lengthAdjust="spacing" textLength="242" x="58" y="239.6636">// multimethod class to deal with collisions</text><line style="stroke:#A80036;stroke-width:1.5;" x1="53" x2="305" y1="246.2578" y2="246.2578"/><!--MD5=[004adecf53ebd169fe537d53b72288dd]
class Animation--><rect codeLine="63" fill="#FEFECE" filter="url(#f1rgwxcmyvooes)" height="60.8047" id="Animation" style="stroke:#A80036;stroke-width:1.5;" width="262" x="341" y="193.4531"/><ellipse cx="438.75" cy="209.4531" fill="#ADD1B2" rx="11" ry="11" style="stroke:#A80036;stroke-width:1.0;"/><path d="M441.0938,205.125 C440.1563,204.6875 439.5625,204.5469 438.6875,204.5469 C436.0625,204.5469 434.0625,206.625 434.0625,209.3438 L434.0625,210.4688 C434.0625,213.0469 436.1719,214.9375 439.0625,214.9375 C440.2813,214.9375 441.4375,214.6406 442.1875,214.0938 C442.7656,213.6875 443.0938,213.2344 443.0938,212.8438 C443.0938,212.3906 442.7031,212 442.2344,212 C442.0156,212 441.8125,212.0781 441.625,212.2656 C441.1719,212.75 441.1719,212.75 440.9844,212.8438 C440.5625,213.1094 439.875,213.2344 439.1094,213.2344 C437.0625,213.2344 435.7656,212.1406 435.7656,210.4375 L435.7656,209.3438 C435.7656,207.5625 437.0156,206.25 438.75,206.25 C439.3281,206.25 439.9375,206.4063 440.4063,206.6563 C440.8906,206.9375 441.0625,207.1563 441.1563,207.5625 C441.2188,207.9688 441.25,208.0938 441.3906,208.2188 C441.5313,208.3594 441.7656,208.4688 441.9844,208.4688 C442.25,208.4688 442.5156,208.3281 442.6875,208.1094 C442.7969,207.9531 442.8281,207.7656 442.8281,207.3438 L442.8281,205.9219 C442.8281,205.4844 442.8125,205.3594 442.7188,205.2031 C442.5625,204.9375 442.2813,204.7969 441.9844,204.7969 C441.6875,204.7969 441.4844,204.8906 441.2656,205.2031 L441.0938,205.125 Z " fill="#000000"/><text fill="#000000" font-family="sans-serif" font-size="12" lengthAdjust="spacing" textLength="58" x="459.25" y="213.6074">Animation</text><line style="stroke:#A80036;stroke-width:1.5;" x1="342" x2="602" y1="225.4531" y2="225.4531"/><text fill="#000000" font-family="sans-serif" font-size="11" lengthAdjust="spacing" textLength="250" x="347" y="239.6636">// will provide animation using sprite sheets</text><line style="stroke:#A80036;stroke-width:1.5;" x1="342" x2="602" y1="246.2578" y2="246.2578"/><!--MD5=[82c0a8aafa3019b7147fc7421fa4dbb7]
reverse link GameObject to MovingObject--><path codeLine="3" d="M1034,147.2661 C1034,160.8861 1034,174.6701 1034,186.6751 " fill="none" id="GameObject-backto-MovingObject" style="stroke:#A80036;stroke-width:1.0;"/><polygon fill="none" points="1027,146.9711,1034,126.9711,1041,146.9711,1027,146.9711" style="stroke:#A80036;stroke-width:1.0;"/><!--MD5=[575842793a9c578826ba2c06b0597d70]
reverse link MovingObject to characters--><path codeLine="4" d="M988.905,276.4211 C976.469,290.6131 962.852,306.1541 949.97,320.8571 " fill="none" id="MovingObject-backto-characters" style="stroke:#A80036;stroke-width:1.0;"/><polygon fill="none" points="983.895,271.5161,1002.34,261.0871,994.425,280.7421,983.895,271.5161" style="stroke:#A80036;stroke-width:1.0;"/><!--MD5=[0343bf204d402f8248e20e095849eb48]
reverse link MovingObject to nonCharacters--><path codeLine="5" d="M1078.96,276.2681 C1097.13,297.0081 1117.85,320.6501 1135.11,340.3531 " fill="none" id="MovingObject-backto-nonCharacters" style="stroke:#A80036;stroke-width:1.0;"/><polygon fill="none" points="1073.58,280.7421,1065.66,261.0871,1084.11,271.5161,1073.58,280.7421" style="stroke:#A80036;stroke-width:1.0;"/><!--MD5=[51d2a9bf6d34d70dfeaca45fe65d5356]
reverse link characters to Player--><path codeLine="6" d="M805.039,458.8141 C785.344,474.9141 765.177,491.4011 747.629,505.7465 " fill="none" id="characters-backto-Player" style="stroke:#A80036;stroke-width:1.0;"/><polygon fill="none" points="800.759,453.2711,820.674,446.0321,809.62,464.1101,800.759,453.2711" style="stroke:#A80036;stroke-width:1.0;"/><!--MD5=[cfe845a19d21aa98b9ed67974c53425d]
reverse link characters to Enemy--><path codeLine="7" d="M986.831,458.7071 C1012.69,479.8501 1039.38,501.6664 1059.89,518.4369 " fill="none" id="characters-backto-Enemy" style="stroke:#A80036;stroke-width:1.0;"/><polygon fill="none" points="982.38,464.1101,971.326,446.0321,991.241,453.2711,982.38,464.1101" style="stroke:#A80036;stroke-width:1.0;"/><!--MD5=[2ea6de51520cc3afd1cd3e67ba7f2018]
link Arena to macros--><!--MD5=[d9f4f52ed4c74d7feb8ddfd4d038963c]
link macros to ResourcesManager--><!--MD5=[3b9d64470fb6a4dc85a62293f05d3972]
link Arena to Collision--><!--MD5=[09944a35084b29546894ca1c26bcd768]
link Collision to Animation--><!--MD5=[6680a6cffe1c7ecd39d989bb963af4c8]
@startuml
title UML - Tiny Fighter

GameObject <|- - MovingObject
MovingObject <|- - characters
MovingObject <|- - nonCharacters
characters <|- - Player
characters <|- - Enemy

class Arena {
  +std::vector<std::unique_ptr<MovingObject>> m_moving
}

class GameObject {
  +sf::Sprite m_icon
  
  +GameObject(const sf::Vector2f& location)
  +~GameObject()
  +void draw(sf::RenderWindow&) = 0
}

class MovingObject {
  +MovingObject(const sf::Vector2f& location)
  +move() = 0
}

class characters {
  +std::pair<sf::Rectangle, sf::Rectangle> m_Health
  +std::pair<sf::Rectangle, sf::Rectangle> m_Mana
  
  +InitializeAttacks()
  +attack(Key) = 0
  +receive(enum Damage) = 0
  +addMana(float amount)
}

class nonCharacters {
  +enum::Damage m_damage
  +float m_speed
  +enum::Direction m_dir
}

class Player {
  +Player(const sf::Vector2f& location)
  +specialAttack();
  +m_lives
}

class Enemy {
  +Enemy(const sf::Vector2f& location, std::vactor<const sf::Vector2f&> playerLocation)
}

class macros {
// macros is not a class
// holds enum classes and consts
}

class ResourcesManager {
// singleton for textures, fonts and sound
}
class Collision {
// multimethod class to deal with collisions
}
class Animation {
// will provide animation using sprite sheets
}
@enduml

PlantUML version 1.2021.7(Sun May 23 12:40:07 UTC 2021)
(GPL source distribution)
Java Runtime: Java(TM) SE Runtime Environment
JVM: Java HotSpot(TM) 64-Bit Server VM
Default Encoding: UTF-8
Language: en
Country: US
--></g></svg>